<svg width="193" height="193" viewBox="0 0 193 193" fill="none" xmlns="http://www.w3.org/2000/svg">
<g clip-path="url(#clip0_1_231)">
<g filter="url(#filter0_d_1_231)">
<path d="M80.4284 21.1241L69.5495 64.741C69.409 65.1796 69.7333 65.6027 70.1561 65.625C70.2637 65.6306 70.3673 65.7084 70.3669 65.8161C70.3666 65.8902 70.3154 65.953 70.2484 65.9844C69.8268 66.1819 69.7188 66.7613 70.0802 67.0947L103.789 98.185C103.959 98.342 104.197 98.4012 104.421 98.342L150.29 86.2194C150.708 86.109 150.894 85.6613 150.743 85.3022C150.689 85.1723 150.71 84.9986 150.836 84.935C150.911 84.8969 151.001 84.9122 151.073 84.9558C151.455 85.1865 151.977 84.9842 152.081 84.5226L161.902 40.9825C161.954 40.7541 161.884 40.5152 161.717 40.3509L129.823 8.91563C129.477 8.57454 128.908 8.70153 128.725 9.12973C128.703 9.1822 128.651 9.21827 128.594 9.21042C128.527 9.20107 128.484 9.13461 128.489 9.06698C128.526 8.60313 128.076 8.22223 127.608 8.37153L80.8679 20.6852C80.659 20.7518 80.4952 20.9153 80.4284 21.1241Z" fill="#1E1E1E"/>
<path d="M70.291 65.6291C69.7915 65.7611 69.334 65.3079 69.4614 64.8072L80.5213 21.3184C80.5817 21.081 80.7656 20.8947 81.0022 20.8311L127.66 8.30466C128.164 8.16935 128.625 8.63074 128.49 9.13473L116.702 53.0113C116.639 53.2457 116.455 53.4285 116.221 53.4905L70.291 65.6291Z" fill="#EB5713"/>
<path d="M70.0854 67.0995C69.6923 66.7369 69.8546 66.0832 70.3716 65.9466L116.241 53.824C116.465 53.7648 116.703 53.824 116.873 53.9809L150.582 85.0713C150.975 85.4339 150.813 86.0876 150.296 86.2243L104.426 98.3469C104.203 98.406 103.964 98.3468 103.794 98.1899L70.0854 67.0995Z" fill="url(#paint0_linear_1_231)"/>
<path d="M117.239 53.7689C117.055 53.5985 116.979 53.3399 117.044 53.097L128.698 9.22903C128.832 8.72648 129.458 8.55547 129.829 8.92048L161.722 40.3557C161.889 40.5201 161.959 40.7589 161.908 40.9873L152.087 84.5275C151.972 85.0361 151.35 85.2299 150.966 84.8764L117.239 53.7689Z" fill="#F3731E"/>
</g>
<g filter="url(#filter1_d_1_231)">
<path d="M17.2509 85.7941L6.37199 129.411C6.23151 129.85 6.55576 130.273 6.97866 130.295C7.08622 130.301 7.18984 130.378 7.18941 130.486C7.18911 130.56 7.13794 130.623 7.07086 130.654C6.64931 130.852 6.54127 131.431 6.90269 131.765L40.6112 162.855C40.7813 163.012 41.0198 163.071 41.2436 163.012L87.1129 150.889C87.5305 150.779 87.7167 150.331 87.5657 149.972C87.5111 149.842 87.5329 149.669 87.6585 149.605C87.7337 149.567 87.8233 149.582 87.8955 149.626C88.2777 149.857 88.7997 149.654 88.9038 149.193L98.7249 105.652C98.7764 105.424 98.7063 105.185 98.5396 105.021L66.6459 73.5857C66.2998 73.2446 65.7301 73.3716 65.548 73.7998C65.5256 73.8522 65.4731 73.8883 65.4167 73.8805C65.3495 73.8711 65.3066 73.8047 65.312 73.737C65.349 73.2732 64.899 72.8923 64.4302 73.0416L17.6904 85.3553C17.4815 85.4218 17.3178 85.5853 17.2509 85.7941Z" fill="#1E1E1E"/>
<path d="M7.11355 130.299C6.61405 130.431 6.15654 129.978 6.28388 129.477L17.3438 85.9885C17.4042 85.751 17.5881 85.5647 17.8247 85.5012L64.4823 72.9747C64.9863 72.8394 65.4476 73.3008 65.3122 73.8048L53.5245 117.681C53.4615 117.916 53.278 118.099 53.0433 118.161L7.11355 130.299Z" fill="#EB5713"/>
<path d="M6.9079 131.77C6.51479 131.407 6.67707 130.753 7.19411 130.617L53.0634 118.494C53.2872 118.435 53.5257 118.494 53.6958 118.651L87.4043 149.741C87.7974 150.104 87.6351 150.758 87.1181 150.894L41.2488 163.017C41.025 163.076 40.7865 163.017 40.6164 162.86L6.9079 131.77Z" fill="url(#paint1_linear_1_231)"/>
<path d="M54.0618 118.439C53.8771 118.269 53.8019 118.01 53.8664 117.767L65.5209 73.899C65.6544 73.3965 66.2808 73.2255 66.6512 73.5905L98.5449 105.026C98.7116 105.19 98.7817 105.429 98.7302 105.657L88.9091 149.197C88.7944 149.706 88.1722 149.9 87.7889 149.546L54.0618 118.439Z" fill="#F3731E"/>
</g>
<g filter="url(#filter2_d_1_231)">
<path d="M105.799 107.682L94.92 151.299C94.7795 151.738 95.1037 152.161 95.5266 152.183C95.6342 152.189 95.7378 152.267 95.7374 152.374C95.7371 152.448 95.6859 152.511 95.6188 152.543C95.1973 152.74 95.0892 153.32 95.4507 153.653L129.159 184.743C129.329 184.9 129.568 184.959 129.792 184.9L175.661 172.778C176.078 172.667 176.265 172.22 176.114 171.86C176.059 171.731 176.081 171.557 176.206 171.493C176.282 171.455 176.371 171.47 176.444 171.514C176.826 171.745 177.348 171.542 177.452 171.081L187.273 127.541C187.324 127.312 187.254 127.073 187.088 126.909L155.194 95.4739C154.848 95.1328 154.278 95.2598 154.096 95.688C154.074 95.7404 154.021 95.7765 153.965 95.7686C153.897 95.7593 153.855 95.6928 153.86 95.6252C153.897 95.1614 153.447 94.7805 152.978 94.9298L106.238 107.243C106.03 107.31 105.866 107.474 105.799 107.682Z" fill="#1E1E1E"/>
<path d="M95.6616 152.187C95.1621 152.319 94.7046 151.866 94.832 151.365L105.892 107.877C105.952 107.639 106.136 107.453 106.373 107.389L153.03 94.8628C153.534 94.7275 153.996 95.1888 153.86 95.6928L142.073 139.569C142.01 139.804 141.826 139.987 141.591 140.049L95.6616 152.187Z" fill="#EB5713"/>
<path d="M95.456 153.658C95.0629 153.295 95.2252 152.641 95.7422 152.505L141.612 140.382C141.835 140.323 142.074 140.382 142.244 140.539L175.952 171.629C176.346 171.992 176.183 172.646 175.666 172.782L129.797 184.905C129.573 184.964 129.335 184.905 129.164 184.748L95.456 153.658Z" fill="url(#paint2_linear_1_231)"/>
<path d="M142.61 140.327C142.425 140.157 142.35 139.898 142.414 139.655L154.069 95.7871C154.202 95.2845 154.829 95.1135 155.199 95.4785L187.093 126.914C187.26 127.078 187.33 127.317 187.278 127.545L177.457 171.086C177.342 171.594 176.72 171.788 176.337 171.434L142.61 140.327Z" fill="#F3731E"/>
</g>
</g>
<defs>
<filter id="filter0_d_1_231" x="61.1305" y="-0.0286061" width="110.765" height="108.369" filterUnits="userSpaceOnUse" color-interpolation-filters="sRGB">
<feFlood flood-opacity="0" result="BackgroundImageFix"/>
<feColorMatrix in="SourceAlpha" type="matrix" values="0 0 0 0 0 0 0 0 0 0 0 0 0 0 0 0 0 0 127 0" result="hardAlpha"/>
<feOffset dx="0.830937" dy="0.830937"/>
<feGaussianBlur stdDeviation="4.57015"/>
<feComposite in2="hardAlpha" operator="out"/>
<feColorMatrix type="matrix" values="0 0 0 0 0 0 0 0 0 0 0 0 0 0 0 0 0 0 0.61 0"/>
<feBlend mode="normal" in2="BackgroundImageFix" result="effect1_dropShadow_1_231"/>
<feBlend mode="normal" in="SourceGraphic" in2="effect1_dropShadow_1_231" result="shape"/>
</filter>
<filter id="filter1_d_1_231" x="-2.04704" y="64.6414" width="110.765" height="108.369" filterUnits="userSpaceOnUse" color-interpolation-filters="sRGB">
<feFlood flood-opacity="0" result="BackgroundImageFix"/>
<feColorMatrix in="SourceAlpha" type="matrix" values="0 0 0 0 0 0 0 0 0 0 0 0 0 0 0 0 0 0 127 0" result="hardAlpha"/>
<feOffset dx="0.830937" dy="0.830937"/>
<feGaussianBlur stdDeviation="4.57015"/>
<feComposite in2="hardAlpha" operator="out"/>
<feColorMatrix type="matrix" values="0 0 0 0 0 0 0 0 0 0 0 0 0 0 0 0 0 0 0.61 0"/>
<feBlend mode="normal" in2="BackgroundImageFix" result="effect1_dropShadow_1_231"/>
<feBlend mode="normal" in="SourceGraphic" in2="effect1_dropShadow_1_231" result="shape"/>
</filter>
<filter id="filter2_d_1_231" x="86.5011" y="86.5295" width="110.765" height="108.369" filterUnits="userSpaceOnUse" color-interpolation-filters="sRGB">
<feFlood flood-opacity="0" result="BackgroundImageFix"/>
<feColorMatrix in="SourceAlpha" type="matrix" values="0 0 0 0 0 0 0 0 0 0 0 0 0 0 0 0 0 0 127 0" result="hardAlpha"/>
<feOffset dx="0.830937" dy="0.830937"/>
<feGaussianBlur stdDeviation="4.57015"/>
<feComposite in2="hardAlpha" operator="out"/>
<feColorMatrix type="matrix" values="0 0 0 0 0 0 0 0 0 0 0 0 0 0 0 0 0 0 0.61 0"/>
<feBlend mode="normal" in2="BackgroundImageFix" result="effect1_dropShadow_1_231"/>
<feBlend mode="normal" in="SourceGraphic" in2="effect1_dropShadow_1_231" result="shape"/>
</filter>
<linearGradient id="paint0_linear_1_231" x1="110.334" y1="53.729" x2="110.334" y2="98.4418" gradientUnits="userSpaceOnUse">
<stop stop-color="#F97A1F"/>
<stop offset="1" stop-color="#F97A1F"/>
</linearGradient>
<linearGradient id="paint1_linear_1_231" x1="47.1561" y1="118.399" x2="47.1561" y2="163.112" gradientUnits="userSpaceOnUse">
<stop stop-color="#F97A1F"/>
<stop offset="1" stop-color="#F97A1F"/>
</linearGradient>
<linearGradient id="paint2_linear_1_231" x1="135.704" y1="140.287" x2="135.704" y2="185" gradientUnits="userSpaceOnUse">
<stop stop-color="#F97A1F"/>
<stop offset="1" stop-color="#F97A1F"/>
</linearGradient>
<clipPath id="clip0_1_231">
<rect width="193" height="193" fill="white"/>
</clipPath>
</defs>
</svg>
