<svg width="1012" height="240" viewBox="0 0 1012 240" fill="none" xmlns="http://www.w3.org/2000/svg">
<g clip-path="url(#clip0_1_237)">
<path d="M375.77 157.619C368.752 157.619 362.949 155.393 358.361 150.939C353.772 146.486 351.478 140.683 351.478 133.53C351.478 130.966 351.68 128.469 352.085 126.04C352.625 123.611 353.367 121.519 354.312 119.764C355.527 119.09 357.956 118.077 361.6 116.728C365.378 115.243 369.697 113.624 374.555 111.869C379.414 110.115 384.07 108.428 388.523 106.809C393.112 105.189 396.823 103.907 399.657 102.962V87.375C399.657 84.6758 399.522 82.5166 399.252 80.8971C399.117 79.2776 398.577 77.7256 397.633 76.2411C396.823 74.8916 395.541 73.677 393.787 72.5973C392.032 71.5177 389.805 70.9778 387.106 70.9778C382.248 70.9778 378.334 72.7323 375.365 76.2411C372.531 79.615 371.519 83.8661 372.329 88.9944L356.134 95.4723C355.999 88.3197 357.551 82.2466 360.79 77.2533C364.029 72.2599 368.415 68.4812 373.948 65.917C379.616 63.3528 385.689 62.0708 392.167 62.0708C399.185 62.0708 404.853 63.7577 409.171 67.1316C413.49 70.3705 415.649 75.4989 415.649 82.5166V134.34C415.649 138.118 415.717 140.817 415.852 142.437C416.122 143.921 416.931 145.204 418.281 146.283C419.631 147.228 421.25 147.565 423.139 147.295C425.029 147.025 426.581 146.688 427.795 146.283L430.225 151.546C427.795 153.301 425.164 154.785 422.33 156C419.631 157.08 416.594 157.619 413.22 157.619C409.576 157.619 406.675 156.607 404.516 154.583C402.356 152.424 401.007 149.86 400.467 146.89C396.148 149.455 392.1 151.884 388.321 154.178C384.542 156.472 380.358 157.619 375.77 157.619ZM381.843 145.069C384.002 145.069 386.566 144.664 389.535 143.854C392.504 143.044 395.878 141.695 399.657 139.805V111.869C395.608 113.219 391.29 114.771 386.701 116.525C382.248 118.28 378.267 119.899 374.758 121.384C371.384 122.733 369.157 123.746 368.077 124.42C366.728 130.358 367.335 135.284 369.899 139.198C372.598 143.112 376.58 145.069 381.843 145.069ZM454.379 127.659L451.343 121.384C460.115 116.66 466.862 111.6 471.586 106.201C476.444 100.803 478.874 94.9325 478.874 88.5896C478.874 82.7865 477.187 78.4004 473.813 75.4314C470.439 72.3274 466.39 70.7754 461.667 70.7754C458.293 70.7754 454.784 71.5177 451.14 73.0022C447.631 74.4867 444.257 76.8484 441.018 80.0874L435.958 76.0387C439.331 70.9104 443.785 66.5243 449.318 62.8805C454.851 59.1017 460.924 57.2123 467.537 57.2123C472.126 57.2123 476.512 58.157 480.695 60.0464C485.014 61.8008 488.59 64.6349 491.424 68.5486C494.258 72.3274 495.676 77.2533 495.676 83.3263C495.676 89.1294 494.326 94.3927 491.627 99.1161C488.928 103.84 485.014 108.226 479.886 112.274C482.99 115.243 486.026 118.617 488.995 122.396C491.964 126.175 494.393 130.358 496.283 134.947C498.307 139.535 499.319 144.529 499.319 149.927C499.319 159.509 497.16 167.674 492.841 174.421C488.523 181.304 482.922 186.837 476.039 191.021C469.157 195.205 461.869 198.106 454.177 199.726C446.484 201.345 439.197 201.75 432.314 200.94L433.124 194.26C441.896 194.665 449.993 193.248 457.416 190.009C464.973 186.77 471.046 182.114 475.635 176.041C480.223 170.103 482.517 163.22 482.517 155.393C482.517 150.534 481.505 146.081 479.481 142.032C477.456 137.848 474.892 134.205 471.788 131.101C468.819 127.862 465.918 125.23 463.084 123.206C460.385 124.69 457.483 126.175 454.379 127.659ZM539.997 157.619C536.354 157.619 533.317 156.405 530.888 153.976C528.459 151.546 527.244 148.577 527.244 145.069C527.244 141.56 528.459 138.523 530.888 135.959C533.317 133.395 536.354 132.113 539.997 132.113C543.641 132.113 546.678 133.327 549.107 135.757C551.671 138.186 552.953 141.155 552.953 144.664C552.953 148.038 551.671 151.074 549.107 153.773C546.678 156.337 543.641 157.619 539.997 157.619ZM608.009 157.619C603.42 157.619 598.562 157.08 593.434 156C588.305 155.055 584.459 153.841 581.895 152.356L577.644 126.04L584.324 124.825C585.539 131.438 587.968 137.106 591.612 141.83C595.39 146.418 600.384 148.712 606.592 148.712C611.315 148.712 615.296 147.565 618.535 145.271C621.774 142.977 623.394 139.603 623.394 135.149C623.394 131.91 622.044 129.009 619.345 126.445C616.646 123.746 613.34 121.181 609.426 118.752C605.512 116.188 601.531 113.489 597.482 110.655C593.569 107.821 590.262 104.649 587.563 101.14C584.864 97.4967 583.514 93.1781 583.514 88.1847C583.514 79.9524 586.483 73.542 592.421 68.9535C598.494 64.365 605.985 62.0708 614.892 62.0708C619.345 62.0708 623.326 62.4756 626.835 63.2854C630.344 63.9601 632.706 64.4325 633.92 64.7024L636.957 87.7798L630.884 88.792C630.209 83.2588 628.32 78.9402 625.216 75.8362C622.247 72.7323 618.468 71.1803 613.879 71.1803C609.426 71.1803 605.715 72.3274 602.746 74.6216C599.777 76.7809 598.292 80.0199 598.292 84.3385C598.292 88.2522 599.642 91.5586 602.341 94.2577C605.175 96.9568 608.616 99.4535 612.665 101.748C616.713 104.042 620.695 106.471 624.608 109.035C628.657 111.6 632.031 114.771 634.73 118.55C637.564 122.329 638.981 127.052 638.981 132.72C638.981 140.143 636.08 146.148 630.277 150.737C624.608 155.325 617.186 157.619 608.009 157.619ZM682.64 157.619C679.671 157.619 676.77 156.945 673.936 155.595C671.102 154.246 668.942 152.424 667.458 150.129C666.243 148.24 665.366 145.878 664.826 143.044C664.421 140.21 664.219 136.296 664.219 131.303V75.0265H653.49V68.7511C656.189 67.1316 658.956 65.0398 661.79 62.4756C664.624 59.9115 667.323 57.1449 669.887 54.1758C672.451 51.2068 674.678 48.5752 676.567 46.2809L680.616 48.1028V63.6902H708.754V75.0265H680.616V130.291C680.616 134.475 680.819 137.646 681.223 139.805C681.763 141.83 682.978 143.449 684.867 144.664C686.622 145.743 688.916 146.216 691.75 146.081C694.719 145.946 697.553 145.541 700.252 144.866C703.086 144.056 705.111 143.314 706.325 142.639L709.159 147.7C705.785 150.399 701.939 152.761 697.621 154.785C693.437 156.675 688.444 157.619 682.64 157.619ZM763.782 157.619C755.144 157.619 747.249 155.528 740.097 151.344C733.079 147.025 727.411 141.29 723.092 134.137C718.909 126.984 716.817 119.022 716.817 110.25C716.817 101.478 718.841 93.448 722.89 86.1604C727.074 78.8727 732.674 73.0697 739.692 68.7511C746.71 64.2975 754.537 62.0708 763.174 62.0708C772.081 62.0708 780.111 64.2975 787.264 68.7511C794.417 73.0697 800.017 78.8053 804.066 85.9579C808.25 93.1106 810.341 100.871 810.341 109.238C810.341 118.01 808.25 126.107 804.066 133.53C800.017 140.817 794.484 146.688 787.466 151.142C780.449 155.46 772.554 157.619 763.782 157.619ZM767.021 148.712C772.419 148.712 776.94 147.093 780.584 143.854C784.362 140.615 787.264 136.431 789.288 131.303C791.313 126.04 792.325 120.507 792.325 114.704C792.325 107.416 790.908 100.466 788.074 93.8528C785.24 87.1051 781.393 81.5719 776.535 77.2533C771.811 72.9347 766.346 70.7754 760.138 70.7754C755.009 70.7754 750.488 72.3949 746.575 75.6338C742.796 78.7378 739.827 82.8539 737.668 87.9823C735.643 93.1106 734.631 98.6438 734.631 104.582C734.631 111.734 736.048 118.752 738.882 125.635C741.716 132.383 745.563 137.916 750.421 142.235C755.279 146.553 760.813 148.712 767.021 148.712ZM820.368 156V149.927C821.853 149.927 824.012 149.725 826.846 149.32C829.68 148.915 832.312 148.038 834.741 146.688V78.063C832.987 77.3882 830.895 77.0508 828.465 77.0508C826.171 76.9159 824.079 76.9834 822.19 77.2533L820.368 71.99L847.089 60.8561L851.138 63.6902V83.1239C854.377 78.1305 857.953 73.542 861.867 69.3584C865.781 65.1747 870.167 62.813 875.025 62.2732C881.098 61.5984 886.092 62.4756 890.005 64.9048L881.098 83.3263C880.019 82.2466 878.534 81.2345 876.645 80.2898C874.755 79.3451 872.596 78.8728 870.167 78.8728C865.308 78.8728 861.462 80.5597 858.628 83.9336C855.794 87.1725 853.297 90.7489 851.138 94.6626V146.688C854.242 148.038 857.481 148.915 860.855 149.32C864.229 149.725 866.86 149.927 868.75 149.927V156H820.368ZM894.144 112.477C894.144 102.625 896.101 93.9203 900.015 86.3628C903.928 78.6703 909.124 72.6648 915.602 68.3462C922.215 64.0276 929.503 61.9358 937.465 62.0708C944.213 62.0708 950.151 63.7577 955.279 67.1316C960.407 70.5055 964.254 75.094 966.818 80.8971C969.517 86.5652 970.462 92.8407 969.652 99.7234L908.922 102.962V103.57C908.922 110.587 910.339 117.133 913.173 123.206C916.007 129.144 919.921 133.935 924.914 137.579C929.907 141.087 935.576 142.842 941.919 142.842C946.507 142.842 950.691 141.965 954.469 140.21C958.248 138.321 961.42 136.229 963.984 133.935L968.235 137.579C966.211 140.548 963.376 143.584 959.733 146.688C956.224 149.792 952.175 152.424 947.587 154.583C942.998 156.607 938.072 157.619 932.809 157.619C925.251 157.619 918.571 155.528 912.768 151.344C906.965 147.16 902.376 141.627 899.003 134.744C895.764 127.862 894.144 120.439 894.144 112.477ZM932.607 72.5973C926.803 72.5973 921.878 74.7566 917.829 79.0752C913.915 83.3938 911.284 88.657 909.934 94.865L951.635 91.6261C951.635 86.4978 949.746 82.0442 945.967 78.2655C942.188 74.4867 937.735 72.5973 932.607 72.5973Z" fill="white"/>
<g clip-path="url(#clip1_1_237)">
<g filter="url(#filter0_d_1_237)">
<path d="M100.428 39.1241L89.5495 82.741C89.409 83.1796 89.7333 83.6027 90.1561 83.625C90.2637 83.6306 90.3673 83.7084 90.3669 83.8161C90.3666 83.8902 90.3154 83.953 90.2484 83.9844C89.8268 84.1819 89.7188 84.7613 90.0802 85.0947L123.789 116.185C123.959 116.342 124.197 116.401 124.421 116.342L170.29 104.219C170.708 104.109 170.894 103.661 170.743 103.302C170.689 103.172 170.71 102.999 170.836 102.935C170.911 102.897 171.001 102.912 171.073 102.956C171.455 103.187 171.977 102.984 172.081 102.523L181.902 58.9825C181.954 58.7541 181.884 58.5152 181.717 58.3509L149.823 26.9156C149.477 26.5745 148.908 26.7015 148.725 27.1297C148.703 27.1822 148.651 27.2183 148.594 27.2104C148.527 27.2011 148.484 27.1346 148.489 27.067C148.526 26.6031 148.076 26.2222 147.608 26.3715L100.868 38.6852C100.659 38.7518 100.495 38.9153 100.428 39.1241Z" fill="#1E1E1E"/>
<path d="M90.291 83.6291C89.7915 83.7611 89.334 83.3079 89.4614 82.8072L100.521 39.3184C100.582 39.081 100.766 38.8947 101.002 38.8311L147.66 26.3047C148.164 26.1693 148.625 26.6307 148.49 27.1347L136.702 71.0113C136.639 71.2457 136.455 71.4285 136.221 71.4905L90.291 83.6291Z" fill="#EB5713"/>
<path d="M90.0854 85.0995C89.6923 84.7369 89.8546 84.0832 90.3716 83.9466L136.241 71.824C136.465 71.7648 136.703 71.824 136.873 71.9809L170.582 103.071C170.975 103.434 170.813 104.088 170.296 104.224L124.426 116.347C124.203 116.406 123.964 116.347 123.794 116.19L90.0854 85.0995Z" fill="url(#paint0_linear_1_237)"/>
<path d="M137.239 71.7689C137.055 71.5985 136.979 71.3399 137.044 71.097L148.698 27.229C148.832 26.7265 149.458 26.5555 149.829 26.9205L181.722 58.3557C181.889 58.5201 181.959 58.7589 181.908 58.9873L172.087 102.527C171.972 103.036 171.35 103.23 170.966 102.876L137.239 71.7689Z" fill="#F3731E"/>
</g>
<g filter="url(#filter1_d_1_237)">
<path d="M37.2509 103.794L26.372 147.411C26.2315 147.85 26.5558 148.273 26.9787 148.295C27.0862 148.301 27.1898 148.378 27.1894 148.486C27.1891 148.56 27.1379 148.623 27.0709 148.654C26.6493 148.852 26.5413 149.431 26.9027 149.765L60.6112 180.855C60.7813 181.012 61.0198 181.071 61.2436 181.012L107.113 168.889C107.53 168.779 107.717 168.331 107.566 167.972C107.511 167.842 107.533 167.669 107.658 167.605C107.734 167.567 107.823 167.582 107.896 167.626C108.278 167.856 108.8 167.654 108.904 167.193L118.725 123.652C118.776 123.424 118.706 123.185 118.54 123.021L86.6459 91.5856C86.2998 91.2445 85.7301 91.3715 85.548 91.7997C85.5256 91.8522 85.4731 91.8883 85.4167 91.8804C85.3495 91.8711 85.3066 91.8046 85.312 91.737C85.349 91.2731 84.899 90.8922 84.4302 91.0415L37.6904 103.355C37.4815 103.422 37.3178 103.585 37.2509 103.794Z" fill="#1E1E1E"/>
<path d="M27.1135 148.299C26.614 148.431 26.1565 147.978 26.2839 147.477L37.3438 103.988C37.4042 103.751 37.5881 103.565 37.8247 103.501L84.4823 90.9746C84.9863 90.8393 85.4476 91.3007 85.3122 91.8047L73.5245 135.681C73.4615 135.916 73.278 136.099 73.0433 136.161L27.1135 148.299Z" fill="#EB5713"/>
<path d="M26.9079 149.769C26.5148 149.407 26.6771 148.753 27.1941 148.616L73.0634 136.494C73.2872 136.435 73.5257 136.494 73.6958 136.651L107.404 167.741C107.797 168.104 107.635 168.758 107.118 168.894L61.2488 181.017C61.025 181.076 60.7865 181.017 60.6164 180.86L26.9079 149.769Z" fill="url(#paint1_linear_1_237)"/>
<path d="M74.0618 136.439C73.8771 136.268 73.8019 136.01 73.8664 135.767L85.5209 91.8989C85.6544 91.3964 86.2808 91.2254 86.6512 91.5904L118.545 123.026C118.712 123.19 118.782 123.429 118.73 123.657L108.909 167.197C108.794 167.706 108.172 167.9 107.789 167.546L74.0618 136.439Z" fill="#F3731E"/>
</g>
<g filter="url(#filter2_d_1_237)">
<path d="M125.799 125.682L114.92 169.299C114.779 169.738 115.104 170.161 115.527 170.183C115.634 170.189 115.738 170.267 115.737 170.374C115.737 170.448 115.686 170.511 115.619 170.543C115.197 170.74 115.089 171.319 115.451 171.653L149.159 202.743C149.329 202.9 149.568 202.959 149.792 202.9L195.661 190.778C196.078 190.667 196.265 190.22 196.114 189.86C196.059 189.731 196.081 189.557 196.206 189.493C196.282 189.455 196.371 189.47 196.444 189.514C196.826 189.745 197.348 189.542 197.452 189.081L207.273 145.541C207.324 145.312 207.254 145.073 207.088 144.909L175.194 113.474C174.848 113.133 174.278 113.26 174.096 113.688C174.074 113.74 174.021 113.776 173.965 113.769C173.897 113.759 173.855 113.693 173.86 113.625C173.897 113.161 173.447 112.78 172.978 112.93L126.238 125.243C126.03 125.31 125.866 125.473 125.799 125.682Z" fill="#1E1E1E"/>
<path d="M115.662 170.187C115.162 170.319 114.705 169.866 114.832 169.365L125.892 125.877C125.952 125.639 126.136 125.453 126.373 125.389L173.03 112.863C173.534 112.727 173.996 113.189 173.86 113.693L162.073 157.569C162.01 157.804 161.826 157.987 161.591 158.049L115.662 170.187Z" fill="#EB5713"/>
<path d="M115.456 171.658C115.063 171.295 115.225 170.641 115.742 170.505L161.612 158.382C161.835 158.323 162.074 158.382 162.244 158.539L195.952 189.629C196.346 189.992 196.183 190.646 195.666 190.782L149.797 202.905C149.573 202.964 149.335 202.905 149.164 202.748L115.456 171.658Z" fill="url(#paint2_linear_1_237)"/>
<path d="M162.61 158.327C162.425 158.157 162.35 157.898 162.414 157.655L174.069 113.787C174.202 113.285 174.829 113.114 175.199 113.479L207.093 144.914C207.26 145.078 207.33 145.317 207.278 145.545L197.457 189.086C197.342 189.594 196.72 189.788 196.337 189.435L162.61 158.327Z" fill="#F3731E"/>
</g>
</g>
</g>
<defs>
<filter id="filter0_d_1_237" x="81.1305" y="17.9714" width="110.765" height="108.369" filterUnits="userSpaceOnUse" color-interpolation-filters="sRGB">
<feFlood flood-opacity="0" result="BackgroundImageFix"/>
<feColorMatrix in="SourceAlpha" type="matrix" values="0 0 0 0 0 0 0 0 0 0 0 0 0 0 0 0 0 0 127 0" result="hardAlpha"/>
<feOffset dx="0.830937" dy="0.830937"/>
<feGaussianBlur stdDeviation="4.57015"/>
<feComposite in2="hardAlpha" operator="out"/>
<feColorMatrix type="matrix" values="0 0 0 0 0 0 0 0 0 0 0 0 0 0 0 0 0 0 0.61 0"/>
<feBlend mode="normal" in2="BackgroundImageFix" result="effect1_dropShadow_1_237"/>
<feBlend mode="normal" in="SourceGraphic" in2="effect1_dropShadow_1_237" result="shape"/>
</filter>
<filter id="filter1_d_1_237" x="17.953" y="82.6414" width="110.765" height="108.369" filterUnits="userSpaceOnUse" color-interpolation-filters="sRGB">
<feFlood flood-opacity="0" result="BackgroundImageFix"/>
<feColorMatrix in="SourceAlpha" type="matrix" values="0 0 0 0 0 0 0 0 0 0 0 0 0 0 0 0 0 0 127 0" result="hardAlpha"/>
<feOffset dx="0.830937" dy="0.830937"/>
<feGaussianBlur stdDeviation="4.57015"/>
<feComposite in2="hardAlpha" operator="out"/>
<feColorMatrix type="matrix" values="0 0 0 0 0 0 0 0 0 0 0 0 0 0 0 0 0 0 0.61 0"/>
<feBlend mode="normal" in2="BackgroundImageFix" result="effect1_dropShadow_1_237"/>
<feBlend mode="normal" in="SourceGraphic" in2="effect1_dropShadow_1_237" result="shape"/>
</filter>
<filter id="filter2_d_1_237" x="106.501" y="104.529" width="110.765" height="108.369" filterUnits="userSpaceOnUse" color-interpolation-filters="sRGB">
<feFlood flood-opacity="0" result="BackgroundImageFix"/>
<feColorMatrix in="SourceAlpha" type="matrix" values="0 0 0 0 0 0 0 0 0 0 0 0 0 0 0 0 0 0 127 0" result="hardAlpha"/>
<feOffset dx="0.830937" dy="0.830937"/>
<feGaussianBlur stdDeviation="4.57015"/>
<feComposite in2="hardAlpha" operator="out"/>
<feColorMatrix type="matrix" values="0 0 0 0 0 0 0 0 0 0 0 0 0 0 0 0 0 0 0.61 0"/>
<feBlend mode="normal" in2="BackgroundImageFix" result="effect1_dropShadow_1_237"/>
<feBlend mode="normal" in="SourceGraphic" in2="effect1_dropShadow_1_237" result="shape"/>
</filter>
<linearGradient id="paint0_linear_1_237" x1="130.334" y1="71.729" x2="130.334" y2="116.442" gradientUnits="userSpaceOnUse">
<stop stop-color="#F97A1F"/>
<stop offset="1" stop-color="#F97A1F"/>
</linearGradient>
<linearGradient id="paint1_linear_1_237" x1="67.1561" y1="136.399" x2="67.1561" y2="181.112" gradientUnits="userSpaceOnUse">
<stop stop-color="#F97A1F"/>
<stop offset="1" stop-color="#F97A1F"/>
</linearGradient>
<linearGradient id="paint2_linear_1_237" x1="155.704" y1="158.287" x2="155.704" y2="203" gradientUnits="userSpaceOnUse">
<stop stop-color="#F97A1F"/>
<stop offset="1" stop-color="#F97A1F"/>
</linearGradient>
<clipPath id="clip0_1_237">
<rect width="1012" height="240" fill="white"/>
</clipPath>
<clipPath id="clip1_1_237">
<rect width="193" height="193" fill="white" transform="translate(20 18)"/>
</clipPath>
</defs>
</svg>
